<svg width="28" height="28" viewBox="0 0 28 28" fill="none" xmlns="http://www.w3.org/2000/svg">
<g id="Binance Icon 1" clip-path="url(#clip0_1803_10027)">
<g id="Icon">
<path id="Vector" d="M14 28C21.732 28 28 21.732 28 14C28 6.26801 21.732 0 14 0C6.26801 0 0 6.26801 0 14C0 21.732 6.26801 28 14 28Z" fill="#F3BA2F"/>
<path id="Vector_2" d="M11.0717 12.797L14.0002 9.86846L16.9287 12.7997L18.6322 11.0962L14.0002 6.46143L9.36816 11.0935L11.0717 12.797Z" fill="white"/>
<path id="Vector_3" d="M6.46191 13.9985L8.16529 12.2951L9.86873 13.9985L8.16535 15.7019L6.46191 13.9985Z" fill="white"/>
<path id="Vector_4" d="M11.0715 15.2029L14 18.1314L16.9285 15.2002L18.6348 16.9037H18.632L14 21.5385L9.36797 16.9064L9.36523 16.9037L11.0715 15.2029Z" fill="white"/>
<path id="Vector_5" d="M18.1309 14.0015L19.8342 12.298L21.5377 14.0014L19.8343 15.7048L18.1309 14.0015Z" fill="white"/>
<path id="Vector_6" d="M15.728 13.9999L13.9999 12.269L12.7229 13.5487L12.5753 13.6937L12.2718 13.9972L12.269 13.9999L12.2718 14.0026L13.9999 15.7308L15.728 13.9999Z" fill="white"/>
</g>
</g>
<defs>
<clipPath id="clip0_1803_10027">
<rect width="28" height="28" fill="white"/>
</clipPath>
</defs>
</svg>
