<svg width="28" height="28" viewBox="0 0 28 28" fill="none" xmlns="http://www.w3.org/2000/svg">
<g clip-path="url(#clip0_1803_10044)">
<g clip-path="url(#clip1_1803_10044)">
<path d="M18 20C23.5228 20 28 15.5228 28 10C28 4.47715 23.5228 0 18 0C12.4772 0 8 4.47715 8 10C8 15.5228 12.4772 20 18 20Z" fill="#26A17B"/>
<path d="M19.2445 10.4225V10.4209C19.1746 10.4258 18.814 10.4469 18.0115 10.4469C17.3698 10.4469 16.9199 10.429 16.7607 10.4209V10.4225C14.2931 10.3137 12.4526 9.8848 12.4526 9.36983C12.4526 8.85649 14.2948 8.42599 16.7607 8.31715V9.99527C16.9215 10.0066 17.3845 10.0343 18.0229 10.0343C18.7896 10.0343 19.173 10.0018 19.2445 9.99527V8.31878C21.7071 8.42924 23.5427 8.85811 23.5427 9.37146C23.5427 9.8848 21.7055 10.3137 19.2445 10.4241M19.2445 8.14495V6.64391H22.6802V4.35498H13.3266V6.64391H16.7623V8.14495C13.9699 8.27329 11.8711 8.82562 11.8711 9.48842C11.8711 10.1512 13.9715 10.7036 16.7623 10.8335V15.6453H19.2461V10.8335C22.0336 10.7052 24.1292 10.1528 24.1292 9.49005C24.1292 8.82887 22.0336 8.27492 19.2461 8.14658" fill="white"/>
</g>
<g clip-path="url(#clip2_1803_10044)">
<rect y="8" width="20" height="20" rx="10" fill="white"/>
<g clip-path="url(#clip3_1803_10044)">
<path d="M19.6976 20.4202C18.362 25.7774 12.936 29.0377 7.57823 27.7018C2.22261 26.3662 -1.03771 20.9399 0.298542 15.583C1.63354 10.2252 7.05949 6.9646 12.4157 8.30023C17.7732 9.63585 21.0332 15.0627 19.6976 20.4202Z" fill="#F7931A"/>
<path d="M14.4066 16.5768C14.6057 15.2462 13.5926 14.5308 12.2072 14.0537L12.6566 12.2512L11.5594 11.9777L11.1219 13.7327C10.8335 13.6608 10.5372 13.593 10.2429 13.5258L10.6835 11.7593L9.58693 11.4858L9.13725 13.2877C8.8985 13.2333 8.66412 13.1796 8.43662 13.123L8.43787 13.1174L6.92475 12.7396L6.63288 13.9115C6.63288 13.9115 7.44694 14.098 7.42975 14.1096C7.87412 14.2205 7.95443 14.5146 7.94099 14.7477L7.42912 16.8012C7.45974 16.809 7.49944 16.8202 7.54319 16.8377C7.50663 16.8287 7.46756 16.8187 7.42725 16.809L6.70974 19.6855C6.65537 19.8205 6.51756 20.023 6.20694 19.9462C6.21788 19.9621 5.40944 19.7471 5.40944 19.7471L4.86475 21.003L6.29256 21.359C6.55818 21.4255 6.81849 21.4952 7.07474 21.5608L6.62069 23.384L7.71662 23.6574L8.16631 21.8537C8.46568 21.9349 8.75631 22.0099 9.04069 22.0805L8.59256 23.8758L9.68975 24.1493L10.1438 22.3296C12.0147 22.6837 13.4216 22.5408 14.0138 20.8487C14.491 19.4862 13.9901 18.7002 13.0057 18.1877C13.7226 18.0224 14.2626 17.5508 14.4066 16.5768ZM11.8997 20.0921C11.5607 21.4546 9.26662 20.718 8.52287 20.5333L9.12537 18.118C9.86912 18.3036 12.2541 18.6712 11.8997 20.0921ZM12.2391 16.5571C11.9297 17.7965 10.0204 17.1668 9.40099 17.0124L9.94725 14.8218C10.5666 14.9762 12.5613 15.2643 12.2391 16.5571Z" fill="white"/>
</g>
</g>
<rect x="-0.75" y="7.25" width="21.5" height="21.5" rx="10.75" stroke="white" stroke-width="1.5"/>
</g>
<defs>
<clipPath id="clip0_1803_10044">
<rect width="28" height="28" fill="white"/>
</clipPath>
<clipPath id="clip1_1803_10044">
<rect width="20" height="20" fill="white" transform="translate(8)"/>
</clipPath>
<clipPath id="clip2_1803_10044">
<rect y="8" width="20" height="20" rx="10" fill="white"/>
</clipPath>
<clipPath id="clip3_1803_10044">
<rect width="20" height="20" fill="white" transform="translate(0 8)"/>
</clipPath>
</defs>
</svg>
