<svg width="24" height="24" viewBox="0 0 24 24" fill="none" xmlns="http://www.w3.org/2000/svg">
<g clip-path="url(#clip0_1_2)">
<path d="M12 0.999993C9.82441 0.999993 7.69767 1.64513 5.88873 2.85383C4.07979 4.06252 2.66989 5.78049 1.83733 7.79047C1.00477 9.80046 0.786929 12.0122 1.21137 14.146C1.6358 16.2798 2.68345 18.2398 4.22183 19.7782C5.76021 21.3165 7.72022 22.3642 9.85401 22.7886C11.9878 23.2131 14.1995 22.9952 16.2095 22.1627C18.2195 21.3301 19.9375 19.9202 21.1462 18.1113C22.3549 16.3023 23 14.1756 23 12C23.0066 10.5536 22.7266 9.12023 22.1762 7.78266C21.6257 6.44509 20.8157 5.22982 19.7929 4.20706C18.7702 3.18429 17.5549 2.37429 16.2173 1.82383C14.8798 1.27338 13.4464 0.993373 12 0.999993ZM16.15 14.75C16.3387 14.9143 16.4626 15.1406 16.4992 15.3881C16.5359 15.6356 16.483 15.888 16.35 16.1C16.2639 16.2214 16.1518 16.322 16.0218 16.3945C15.8918 16.4671 15.7473 16.5097 15.5988 16.5192C15.4503 16.5288 15.3015 16.5051 15.1633 16.4499C15.0251 16.3947 14.901 16.3093 14.8 16.2L12 13.4L9.2 16.2C9.099 16.3093 8.97487 16.3947 8.83668 16.4499C8.69848 16.5051 8.5497 16.5288 8.40118 16.5192C8.25267 16.5097 8.10816 16.4671 7.97821 16.3945C7.84825 16.322 7.73613 16.2214 7.65 16.1C7.51702 15.888 7.4641 15.6356 7.50077 15.3881C7.53744 15.1406 7.66129 14.9143 7.85 14.75L10.6 12L7.85 9.24999C7.66955 9.08034 7.55163 8.85476 7.51534 8.60976C7.47904 8.36475 7.52649 8.11467 7.65 7.89999C7.73613 7.77862 7.84825 7.67799 7.97821 7.60546C8.10816 7.53293 8.25267 7.49032 8.40118 7.48074C8.5497 7.47116 8.69848 7.49485 8.83668 7.55008C8.97487 7.60531 9.099 7.69069 9.2 7.79999L12 10.6L14.8 7.79999C14.901 7.69069 15.0251 7.60531 15.1633 7.55008C15.3015 7.49485 15.4503 7.47116 15.5988 7.48074C15.7473 7.49032 15.8918 7.53293 16.0218 7.60546C16.1518 7.67799 16.2639 7.77862 16.35 7.89999C16.4735 8.11467 16.521 8.36475 16.4847 8.60976C16.4484 8.85476 16.3305 9.08034 16.15 9.24999L13.4 12L16.15 14.75Z" fill="#8E8E93"/>
</g>
<defs>
<clipPath id="clip0_1_2">
<rect width="24" height="24" fill="white"/>
</clipPath>
</defs>
</svg>
