<svg width="20" height="20" viewBox="0 0 20 20" fill="none" xmlns="http://www.w3.org/2000/svg">
<path fill-rule="evenodd" clip-rule="evenodd" d="M10.0002 17.8572C14.3396 17.8572 17.8574 14.3394 17.8574 10C17.8574 5.66065 14.3396 2.14288 10.0002 2.14288C5.66083 2.14288 2.14307 5.66065 2.14307 10C2.14307 14.3394 5.66083 17.8572 10.0002 17.8572ZM6.57738 6.57706C6.8898 6.26464 7.39633 6.26464 7.70875 6.57706L10.0002 8.86852L12.2917 6.57706C12.6041 6.26464 13.1106 6.26464 13.423 6.57706C13.7355 6.88948 13.7355 7.39601 13.423 7.70843L11.1316 9.99989L13.423 12.2913C13.7355 12.6038 13.7355 13.1103 13.423 13.4227C13.1106 13.7351 12.6041 13.7351 12.2917 13.4227L10.0002 11.1313L7.70875 13.4227C7.39633 13.7351 6.8898 13.7351 6.57738 13.4227C6.26496 13.1103 6.26496 12.6038 6.57738 12.2913L8.86884 9.99989L6.57738 7.70843C6.26496 7.39601 6.26496 6.88948 6.57738 6.57706Z" fill="#8E8E93"/>
</svg>
