<svg width="25" height="24" viewBox="0 0 25 24" fill="none" xmlns="http://www.w3.org/2000/svg">
<g opacity="0.8">
<path fill-rule="evenodd" clip-rule="evenodd" d="M12.499 1.49927C6.69949 1.49927 1.99805 6.20072 1.99805 12.0002C1.99805 17.7998 6.69949 22.5012 12.499 22.5012C18.2986 22.5012 23 17.7998 23 12.0002C23 6.20072 18.2986 1.49927 12.499 1.49927ZM16.0607 6.61901C15.8403 6.71337 15.6409 6.85064 15.474 7.02282L14.7661 7.73076L17.322 10.2867L18.0299 9.57876C18.2021 9.41191 18.3394 9.21247 18.4337 8.99206C18.5281 8.77164 18.5777 8.53466 18.5796 8.2949C18.5814 8.05515 18.5356 7.81741 18.4447 7.59554C18.3538 7.37367 18.2197 7.1721 18.0502 7.00256C17.8807 6.83302 17.6791 6.69891 17.4572 6.60803C17.2353 6.51715 16.9976 6.47131 16.7579 6.4732C16.5181 6.47509 16.2811 6.52465 16.0607 6.61901ZM8.67641 13.8204L14.2788 8.21804L16.8352 10.7744L11.2323 16.3764C11.0302 16.5793 10.7788 16.7263 10.5028 16.803L7.96341 17.5141C7.90453 17.5305 7.84235 17.531 7.78322 17.5155C7.7241 17.5 7.67016 17.469 7.62694 17.4258C7.58372 17.3826 7.55276 17.3287 7.53725 17.2695C7.52173 17.2104 7.52221 17.1482 7.53865 17.0894L8.2498 14.5495C8.32703 14.2737 8.47414 14.0227 8.67641 13.8204Z" fill="black"/>
</g>
</svg>
