<svg width="25" height="24" viewBox="0 0 25 24" fill="none" xmlns="http://www.w3.org/2000/svg">
<path fill-rule="evenodd" clip-rule="evenodd" d="M1.44922 12C1.44922 6.04795 6.29722 1.19995 12.2492 1.19995C18.2012 1.19995 23.0492 6.04795 23.0492 12C23.0492 17.952 18.2012 22.8 12.2492 22.8C6.29722 22.8 1.44922 17.952 1.44922 12ZM13.1762 7.69268L13.0786 13.2215C13.0707 13.6735 12.702 14.0357 12.25 14.0357C11.798 14.0357 11.4293 13.6735 11.4213 13.2215L11.3238 7.69268C11.3146 7.17475 11.732 6.74997 12.25 6.74997C12.768 6.74997 13.1853 7.17475 13.1762 7.69268ZM13.3211 16.1785C13.3211 16.7703 12.8414 17.25 12.2497 17.25C11.6579 17.25 11.1782 16.7703 11.1782 16.1785C11.1782 15.5868 11.6579 15.1071 12.2497 15.1071C12.8414 15.1071 13.3211 15.5868 13.3211 16.1785Z" fill="#FF3B30"/>
</svg>
