<svg width="246" height="40" viewBox="0 0 246 40" fill="none" xmlns="http://www.w3.org/2000/svg">
<path fill-rule="evenodd" clip-rule="evenodd" d="M11.1835 16.7141C5.81816 11.341 9.6181 2.15381 17.2058 2.15381C24.7935 2.15381 28.5935 11.341 23.2281 16.7141L17.2058 22.7452L11.1835 16.7141ZM17.2058 6.90701C13.8466 6.90701 12.1643 10.9743 14.5396 13.3531L17.2058 16.0231L19.872 13.3531C22.2473 10.9743 20.565 6.90701 17.2058 6.90701Z" fill="white" fill-opacity="0.72"/>
<path fill-rule="evenodd" clip-rule="evenodd" d="M11.1835 22.0544C5.81816 27.4276 9.6181 36.6147 17.2058 36.6147C24.7935 36.6147 28.5935 27.4276 23.2281 22.0544L17.2058 16.0234L11.1835 22.0544ZM17.2058 31.8615C13.8466 31.8615 12.1643 27.7942 14.5396 25.4155L17.2058 22.7454L19.872 25.4155C22.2473 27.7942 20.565 31.8615 17.2058 31.8615Z" fill="white" fill-opacity="0.72"/>
<path fill-rule="evenodd" clip-rule="evenodd" d="M11.183 16.7147C8.80773 14.3359 4.74631 16.0206 4.74631 19.3847C4.74631 22.7488 8.80772 24.4335 11.183 22.0548L13.8492 19.3847L11.183 16.7147ZM17.2054 16.0237L14.5392 13.3536C9.17386 7.98051 2.82902e-07 11.786 0 19.3847C-2.82902e-07 26.9834 9.17386 30.7889 14.5392 25.4158L17.2054 22.7457L19.8715 25.4158C25.2369 30.7889 34.4107 26.9834 34.4107 19.3847C34.4107 11.786 25.2369 7.98052 19.8715 13.3536L17.2054 16.0237ZM20.5615 19.3847L23.2277 22.0548C25.603 24.4335 29.6644 22.7488 29.6644 19.3847C29.6644 16.0206 25.603 14.3359 23.2277 16.7147L20.5615 19.3847Z" fill="white" fill-opacity="0.72"/>
<path d="M55.4842 27.5241H49.0502L47.784 32H43.4259L50.4489 10.563H54.2033L61.0938 32H56.7357L55.4842 27.5241ZM50.0661 24.0053H54.5125L52.3187 16.1137L50.0661 24.0053ZM79.5985 32H75.476L69.5131 18.1749V32H65.3464V10.563H69.5131L75.4318 24.3292L75.4465 10.563H79.5985V32ZM99.178 22.6066H90.3735V28.6578H100.665V32H86.2216V10.563H100.621V13.9346H90.3735V19.338H99.178V22.6066ZM117.639 26.4052C117.639 26.0224 117.57 25.6641 117.432 25.3304C117.305 24.9967 117.084 24.6826 116.77 24.3881C116.446 24.1035 116.024 23.8433 115.504 23.6078C114.993 23.3624 114.355 23.1366 113.59 22.9305C112.402 22.6066 111.357 22.214 110.454 21.7526C109.56 21.2913 108.829 20.7858 108.26 20.2362C107.691 19.6865 107.259 19.0779 106.964 18.4105C106.68 17.743 106.537 17.0167 106.537 16.2314C106.537 15.3284 106.729 14.5088 107.111 13.7727C107.494 13.0365 108.024 12.4083 108.702 11.8881C109.379 11.3679 110.179 10.9704 111.101 10.6955C112.024 10.4109 113.025 10.2685 114.105 10.2685C115.224 10.2685 116.245 10.4305 117.167 10.7544C118.1 11.0783 118.9 11.5298 119.567 12.1089C120.235 12.6979 120.755 13.3948 121.128 14.1996C121.501 15.0045 121.687 15.8879 121.687 16.8498H117.653C117.634 16.3689 117.545 15.9272 117.388 15.5247C117.241 15.1223 117.02 14.7738 116.726 14.4794C116.421 14.1947 116.044 13.9739 115.592 13.8168C115.15 13.65 114.63 13.5665 114.031 13.5665C113.482 13.5665 112.991 13.6353 112.559 13.7727C112.137 13.9003 111.779 14.0819 111.484 14.3174C111.19 14.5628 110.964 14.8524 110.807 15.1861C110.66 15.51 110.586 15.8634 110.586 16.2462C110.586 16.6486 110.684 17.0118 110.881 17.3357C111.087 17.6596 111.381 17.9492 111.764 18.2044C112.147 18.4694 112.608 18.7099 113.148 18.9258C113.698 19.1417 114.316 19.3429 115.003 19.5294C115.739 19.7356 116.441 19.9859 117.109 20.2803C117.776 20.5748 118.389 20.9134 118.949 21.2962C119.793 21.9244 120.465 22.6557 120.966 23.49C121.467 24.3243 121.717 25.2862 121.717 26.3757C121.717 27.318 121.525 28.1572 121.143 28.8934C120.77 29.6197 120.249 30.2332 119.582 30.7338C118.915 31.2442 118.119 31.6319 117.197 31.8969C116.274 32.1521 115.268 32.2797 114.179 32.2797C113.109 32.2797 112.049 32.1227 110.998 31.8086C109.958 31.4847 109.05 31.0135 108.275 30.3952C107.538 29.7866 106.954 29.0701 106.523 28.2456C106.1 27.4211 105.889 26.4543 105.889 25.3451H109.953C109.973 25.9929 110.086 26.5475 110.292 27.0088C110.498 27.4702 110.787 27.8481 111.16 28.1425C111.524 28.437 111.96 28.6529 112.471 28.7903C112.991 28.9278 113.56 28.9965 114.179 28.9965C114.728 28.9965 115.214 28.9327 115.636 28.8051C116.068 28.6775 116.431 28.5008 116.726 28.275C117.02 28.0493 117.246 27.7793 117.403 27.4653C117.56 27.1413 117.639 26.788 117.639 26.4052ZM142.783 13.9346H136.173V32H132.021V13.9346H125.498V10.563H142.783V13.9346ZM161.7 32H157.607V22.7097H151.541V32H147.434V10.563H151.541V19.3528H157.607V10.563H161.7V32ZM181.265 22.6066H172.461V28.6578H182.752V32H168.309V10.563H182.708V13.9346H172.461V19.338H181.265V22.6066ZM193.012 28.6578H203.642V32H187.977V29.4676L198.371 13.9346H188.006V10.563H203.377L203.392 13.0218L193.012 28.6578ZM210.03 10.563H222.427V13.9052H218.245V28.6726H222.427V32H210.03V28.6726H214.108V13.9052H210.03V10.563ZM240.18 27.5241H233.746L232.48 32H228.122L235.145 10.563H238.899L245.79 32H241.432L240.18 27.5241ZM234.762 24.0053H239.209L237.015 16.1137L234.762 24.0053Z" fill="white"/>
</svg>
