<svg width="28" height="29" viewBox="0 0 28 29" fill="none" xmlns="http://www.w3.org/2000/svg">
<path d="M25 14.8667C25 20.9418 20.0751 25.8667 14 25.8667C7.92487 25.8667 3 20.9418 3 14.8667C3 8.79157 7.92487 3.8667 14 3.8667C20.0751 3.8667 25 8.79157 25 14.8667Z" fill="#E5E5EA"/>
<path fill-rule="evenodd" clip-rule="evenodd" d="M10.5659 10.301C10.2535 9.98859 9.74693 9.98859 9.43451 10.301C9.12209 10.6134 9.12209 11.12 9.43451 11.4324L12.8688 14.8667L9.43451 18.301C9.12209 18.6134 9.12209 19.12 9.43451 19.4324C9.74693 19.7448 10.2535 19.7448 10.5659 19.4324L14.0002 15.9981L17.4345 19.4324C17.7469 19.7448 18.2535 19.7448 18.5659 19.4324C18.8783 19.12 18.8783 18.6134 18.5659 18.301L15.1316 14.8667L18.5659 11.4324C18.8783 11.12 18.8783 10.6134 18.5659 10.301C18.2535 9.98859 17.7469 9.98859 17.4345 10.301L14.0002 13.7353L10.5659 10.301Z" fill="#AEAEB2"/>
</svg>
