<svg width="40" height="40" viewBox="0 0 40 40" fill="none" xmlns="http://www.w3.org/2000/svg">
<rect width="40" height="40" rx="20" fill="url(#paint0_linear_3180_4771)"/>
<path fill-rule="evenodd" clip-rule="evenodd" d="M20 31C26.0751 31 31 26.0751 31 20C31 13.9249 26.0751 9 20 9C13.9249 9 9 13.9249 9 20C9 26.0751 13.9249 31 20 31ZM24.2071 15.7929C24.5976 16.1834 24.5976 16.8166 24.2071 17.2071L21.4142 20L24.2071 22.7929C24.5976 23.1834 24.5976 23.8166 24.2071 24.2071C23.8166 24.5976 23.1834 24.5976 22.7929 24.2071L20 21.4142L17.2071 24.2071C16.8166 24.5976 16.1834 24.5976 15.7929 24.2071C15.4024 23.8166 15.4024 23.1834 15.7929 22.7929L18.5858 20L15.7929 17.2071C15.4024 16.8166 15.4024 16.1834 15.7929 15.7929C16.1834 15.4024 16.8166 15.4024 17.2071 15.7929L20 18.5858L22.7929 15.7929C23.1834 15.4024 23.8166 15.4024 24.2071 15.7929Z" fill="white"/>
<defs>
<linearGradient id="paint0_linear_3180_4771" x1="20" y1="0" x2="34.443" y2="33.8347" gradientUnits="userSpaceOnUse">
<stop stop-color="#FFB8B4"/>
<stop offset="1" stop-color="#FF3B30"/>
</linearGradient>
</defs>
</svg>
