<svg width="28" height="28" viewBox="0 0 28 28" fill="none" xmlns="http://www.w3.org/2000/svg">
<g clip-path="url(#clip0_1803_10065)">
<g clip-path="url(#clip1_1803_10065)">
<path d="M18 20C23.5228 20 28 15.5228 28 10C28 4.47715 23.5228 0 18 0C12.4772 0 8 4.47715 8 10C8 15.5228 12.4772 20 18 20Z" fill="#E5E5EA"/>
<path d="M10.9673 8.24713L10.9674 8.24694C11.9353 4.3627 15.8695 1.99884 19.753 2.96712L19.753 2.96713C23.6375 3.93542 26.0012 7.86977 25.0328 11.7538C24.0644 15.6376 20.1304 18.0013 16.2455 17.0328C12.3624 16.0645 9.99851 12.1306 10.9673 8.24713Z" stroke="white" stroke-width="1.5"/>
</g>
<g clip-path="url(#clip2_1803_10065)">
<rect y="8" width="20" height="20" rx="10" fill="white"/>
<g clip-path="url(#clip3_1803_10065)">
<path d="M19.6976 20.4202C18.362 25.7774 12.936 29.0377 7.57823 27.7018C2.22261 26.3662 -1.03771 20.9399 0.298542 15.583C1.63354 10.2252 7.05949 6.9646 12.4157 8.30023C17.7732 9.63585 21.0332 15.0627 19.6976 20.4202Z" fill="#C7C7CC"/>
<path d="M2.96734 16.2471L2.96738 16.2469C3.93533 12.3627 7.86946 9.99884 11.753 10.9671L11.753 10.9671C15.6375 11.9354 18.0012 15.8698 17.0328 19.7538C16.0644 23.6376 12.1304 26.0013 8.24547 25.0328C4.36239 24.0645 1.99851 20.1306 2.96734 16.2471Z" fill="#C7C7CC" stroke="white" stroke-width="1.5"/>
</g>
</g>
<rect x="-0.75" y="7.25" width="21.5" height="21.5" rx="10.75" stroke="white" stroke-width="1.5"/>
</g>
<defs>
<clipPath id="clip0_1803_10065">
<rect width="28" height="28" fill="white"/>
</clipPath>
<clipPath id="clip1_1803_10065">
<rect width="20" height="20" fill="white" transform="translate(8)"/>
</clipPath>
<clipPath id="clip2_1803_10065">
<rect y="8" width="20" height="20" rx="10" fill="white"/>
</clipPath>
<clipPath id="clip3_1803_10065">
<rect width="20" height="20" fill="white" transform="translate(0 8)"/>
</clipPath>
</defs>
</svg>
