<svg width="40" height="40" viewBox="0 0 40 40" fill="none" xmlns="http://www.w3.org/2000/svg">
<path d="M19.6445 15.6138C19.9195 14.7888 21.0845 14.7888 21.3595 15.6138L22.972 20.4563C23.3269 21.5208 23.9249 22.488 24.7186 23.2812C25.5122 24.0744 26.4798 24.6719 27.5445 25.0263L32.3845 26.6388C33.2095 26.9138 33.2095 28.0788 32.3845 28.3538L27.542 29.9663C26.4775 30.3212 25.5103 30.9192 24.717 31.7129C23.9238 32.5065 23.3263 33.4741 22.972 34.5388L21.3595 39.3788C21.3002 39.5594 21.1854 39.7167 21.0314 39.8283C20.8774 39.9398 20.6921 39.9998 20.502 39.9998C20.3118 39.9998 20.1266 39.9398 19.9726 39.8283C19.8186 39.7167 19.7038 39.5594 19.6445 39.3788L18.032 34.5363C17.6773 33.472 17.0797 32.505 16.2865 31.7118C15.4932 30.9186 14.5262 30.3209 13.462 29.9663L8.61947 28.3538C8.43881 28.2945 8.2815 28.1796 8.16997 28.0257C8.05844 27.8717 7.99839 27.6864 7.99839 27.4963C7.99839 27.3061 8.05844 27.1208 8.16997 26.9669C8.2815 26.8129 8.43881 26.698 8.61947 26.6388L13.462 25.0263C14.5262 24.6716 15.4932 24.074 16.2865 23.2807C17.0797 22.4875 17.6773 21.5205 18.032 20.4563L19.6445 15.6138ZM9.98697 2.86626C10.0228 2.75799 10.0919 2.66378 10.1843 2.597C10.2768 2.53023 10.3879 2.49429 10.502 2.49429C10.616 2.49429 10.7272 2.53023 10.8196 2.597C10.9121 2.66378 10.9811 2.75799 11.017 2.86626L11.9845 5.77126C12.417 7.06626 13.432 8.08126 14.727 8.51376L17.632 9.48126C17.7402 9.51711 17.8344 9.58616 17.9012 9.67862C17.968 9.77107 18.0039 9.88221 18.0039 9.99626C18.0039 10.1103 17.968 10.2214 17.9012 10.3139C17.8344 10.4064 17.7402 10.4754 17.632 10.5113L14.727 11.4788C14.0883 11.6915 13.5079 12.0502 13.0319 12.5262C12.5559 13.0022 12.1973 13.5826 11.9845 14.2213L11.017 17.1263C10.9811 17.2345 10.9121 17.3287 10.8196 17.3955C10.7272 17.4623 10.616 17.4982 10.502 17.4982C10.3879 17.4982 10.2768 17.4623 10.1843 17.3955C10.0919 17.3287 10.0228 17.2345 9.98697 17.1263L9.01947 14.2213C8.80668 13.5826 8.44806 13.0022 7.97203 12.5262C7.49601 12.0502 6.91565 11.6915 6.27697 11.4788L3.37197 10.5113C3.2637 10.4754 3.16949 10.4064 3.10272 10.3139C3.03594 10.2214 3 10.1103 3 9.99626C3 9.88221 3.03594 9.77107 3.10272 9.67862C3.16949 9.58616 3.2637 9.51711 3.37197 9.48126L6.27697 8.51376C6.91565 8.30097 7.49601 7.94235 7.97203 7.46632C8.44806 6.9903 8.80668 6.40994 9.01947 5.77126L9.98697 2.86626ZM27.6595 0.243757C27.6841 0.172572 27.7304 0.110846 27.7918 0.0671606C27.8532 0.0234748 27.9266 0 28.002 0C28.0773 0 28.1508 0.0234748 28.2122 0.0671606C28.2735 0.110846 28.3198 0.172572 28.3445 0.243757L28.9895 2.17876C29.277 3.04376 29.9545 3.72126 30.8195 4.00876L32.7545 4.65376C32.8257 4.67844 32.8874 4.72468 32.9311 4.78606C32.9747 4.84745 32.9982 4.92092 32.9982 4.99626C32.9982 5.0716 32.9747 5.14507 32.9311 5.20645C32.8874 5.26783 32.8257 5.31408 32.7545 5.33876L30.8195 5.98376C30.3932 6.12556 30.0058 6.3648 29.6882 6.68246C29.3705 7.00013 29.1313 7.38748 28.9895 7.81376L28.3445 9.74876C28.3198 9.81994 28.2735 9.88167 28.2122 9.92535C28.1508 9.96904 28.0773 9.99251 28.002 9.99251C27.9266 9.99251 27.8532 9.96904 27.7918 9.92535C27.7304 9.88167 27.6841 9.81994 27.6595 9.74876L27.0145 7.81376C26.8727 7.38748 26.6334 7.00013 26.3158 6.68246C25.9981 6.3648 25.6107 6.12556 25.1845 5.98376L23.252 5.33876C23.1808 5.31408 23.1191 5.26783 23.0754 5.20645C23.0317 5.14507 23.0082 5.0716 23.0082 4.99626C23.0082 4.92092 23.0317 4.84745 23.0754 4.78606C23.1191 4.72468 23.1808 4.67844 23.252 4.65376L25.187 4.00876C26.052 3.72126 26.7295 3.04376 27.017 2.17876L27.6595 0.243757Z" fill="#0A84FF"/>
</svg>
