<svg width="56" height="57" viewBox="0 0 56 57" fill="none" xmlns="http://www.w3.org/2000/svg">
<path d="M44.0769 46.1167H42.6154C42.3231 38.9292 40.8615 33.4667 32.9692 28.8667C40.5692 24.2667 42.3231 18.8042 42.6154 11.6167H44.0769C45.8308 11.6167 47 10.4667 47 8.7417C47 7.0167 45.8308 5.8667 44.0769 5.8667H11.9231C10.1692 5.8667 9 7.0167 9 8.7417C9 10.4667 10.1692 11.6167 11.9231 11.6167H13.3846C13.6769 18.8042 15.1385 24.2667 23.0308 28.8667C15.4308 33.4667 13.6769 38.9292 13.3846 46.1167H11.9231C10.1692 46.1167 9 47.2667 9 48.9917C9 50.7167 10.1692 51.8667 11.9231 51.8667H44.0769C45.8308 51.8667 47 50.7167 47 48.9917C47 47.2667 45.8308 46.1167 44.0769 46.1167Z" fill="#787880" fill-opacity="0.12"/>
</svg>
