<svg width="28" height="28" viewBox="0 0 28 28" fill="none" xmlns="http://www.w3.org/2000/svg">
<g clip-path="url(#clip0_1803_10091)">
<g clip-path="url(#clip1_1803_10091)">
<path d="M18 20C23.5228 20 28 15.5228 28 10C28 4.47715 23.5228 0 18 0C12.4772 0 8 4.47715 8 10C8 15.5228 12.4772 20 18 20Z" fill="#26A17B"/>
<path d="M19.2445 10.4225V10.4209C19.1746 10.4258 18.814 10.4469 18.0115 10.4469C17.3698 10.4469 16.9199 10.429 16.7607 10.4209V10.4225C14.2931 10.3137 12.4526 9.8848 12.4526 9.36983C12.4526 8.85649 14.2948 8.42599 16.7607 8.31715V9.99527C16.9215 10.0066 17.3845 10.0343 18.0229 10.0343C18.7896 10.0343 19.173 10.0018 19.2445 9.99527V8.31878C21.7071 8.42924 23.5427 8.85811 23.5427 9.37146C23.5427 9.8848 21.7055 10.3137 19.2445 10.4241M19.2445 8.14495V6.64391H22.6802V4.35498H13.3266V6.64391H16.7623V8.14495C13.9699 8.27329 11.8711 8.82562 11.8711 9.48842C11.8711 10.1512 13.9715 10.7036 16.7623 10.8335V15.6453H19.2461V10.8335C22.0336 10.7052 24.1292 10.1528 24.1292 9.49005C24.1292 8.82887 22.0336 8.27492 19.2461 8.14658" fill="white"/>
</g>
<rect x="-0.75" y="7.25" width="21.5" height="21.5" rx="10.75" fill="#3375BB"/>
<rect x="-0.75" y="7.25" width="21.5" height="21.5" rx="10.75" stroke="white" stroke-width="1.5"/>
<path fill-rule="evenodd" clip-rule="evenodd" d="M9.64437 11.8953C9.87276 11.7016 10.2049 11.7016 10.4333 11.8953C12.1063 13.3143 14.0139 13.3034 14.7521 13.2991C14.789 13.2989 14.8229 13.2987 14.8537 13.2987C15.0185 13.2987 15.1764 13.3659 15.2921 13.4851C15.4078 13.6044 15.4715 13.7658 15.469 13.9331C15.4341 16.285 15.3413 17.9635 15.1591 19.1937C14.9771 20.4231 14.698 21.2657 14.2483 21.9005C13.7954 22.5399 13.2132 22.9028 12.5934 23.2508C12.4859 23.3111 12.3764 23.3714 12.2643 23.4332C11.7202 23.7329 11.1154 24.0661 10.3975 24.5891C10.1831 24.7453 9.89454 24.7453 9.68014 24.5891C8.96296 24.0666 8.35895 23.7336 7.81568 23.434C7.70304 23.3719 7.593 23.3112 7.48512 23.2506C6.86574 22.9026 6.28438 22.5395 5.83233 21.9C5.38358 21.2651 5.10544 20.4226 4.9241 19.1934C4.74264 17.9633 4.65025 16.2849 4.6153 13.9331C4.61282 13.7658 4.67654 13.6044 4.79221 13.4851C4.90787 13.3659 5.0658 13.2987 5.23062 13.2987C5.2611 13.2987 5.29468 13.2989 5.33117 13.2991C6.06341 13.3034 7.97123 13.3145 9.64437 11.8953ZM5.85706 14.5448C5.89837 16.5493 5.98822 17.9706 6.14129 19.0081C6.31007 20.1522 6.54787 20.7689 6.83213 21.171C7.1131 21.5685 7.48185 21.8203 8.08091 22.1569C8.17848 22.2117 8.2814 22.2684 8.38947 22.3279C8.85023 22.5816 9.40481 22.8871 10.0388 23.3203C10.6738 22.8865 11.2292 22.5809 11.6907 22.3269C11.7983 22.2677 11.9008 22.2113 11.998 22.1567C12.5979 21.82 12.9675 21.5682 13.2492 21.1705C13.5342 20.7683 13.7727 20.1517 13.942 19.0078C14.0956 17.9704 14.1859 16.5493 14.2272 14.5449C13.2798 14.5139 11.6113 14.3152 10.0388 13.1656C8.46825 14.3138 6.80211 14.5134 5.85706 14.5448Z" fill="white"/>
</g>
<defs>
<clipPath id="clip0_1803_10091">
<rect width="28" height="28" fill="white"/>
</clipPath>
<clipPath id="clip1_1803_10091">
<rect width="20" height="20" fill="white" transform="translate(8)"/>
</clipPath>
</defs>
</svg>
