<svg width="50" height="41" viewBox="0 0 50 41" fill="none" xmlns="http://www.w3.org/2000/svg">
<path fill-rule="evenodd" clip-rule="evenodd" d="M0.5 8.08349C0.5 3.66521 4.08172 0.0834961 8.5 0.0834961H41.5C45.9183 0.0834961 49.5 3.66522 49.5 8.0835V10.3335H49.4998H34.927C31.5673 10.3335 28.8437 13.0571 28.8437 16.4168V24.5835C28.8437 27.9432 31.5673 30.6668 34.927 30.6668H49.4998H49.5V32.9168C49.5 37.3351 45.9183 40.9168 41.5 40.9168H8.5C4.08172 40.9168 0.5 37.3351 0.5 32.9168V8.08349ZM49.4998 12.3335H49.5V28.6668H49.4998H34.927C32.6719 28.6668 30.8437 26.8387 30.8437 24.5835V16.4168C30.8437 14.1617 32.6719 12.3335 34.927 12.3335H49.4998ZM34.9275 20.5002C34.9275 22.4446 36.4826 24.0002 38.4266 24.0002C40.3705 24.0002 41.9256 22.4446 41.9256 20.5002C41.9256 18.5557 40.3705 17.0002 38.4266 17.0002C36.4826 17.0002 34.9275 18.5557 34.9275 20.5002Z" fill="#787880" fill-opacity="0.12"/>
</svg>
