<svg width="24" height="22" viewBox="0 0 24 22" fill="none" xmlns="http://www.w3.org/2000/svg">
<path d="M4.39014 9.44629C4.39014 8.5332 4.56169 7.67822 4.90479 6.88135C5.24788 6.07894 5.7238 5.37337 6.33252 4.76465C6.94124 4.15592 7.64404 3.68001 8.44092 3.33691C9.24333 2.99382 10.1011 2.82227 11.0142 2.82227C11.9272 2.82227 12.7822 2.99382 13.5791 3.33691C14.3815 3.68001 15.0871 4.15592 15.6958 4.76465C16.3045 5.37337 16.7804 6.07894 17.1235 6.88135C17.4666 7.67822 17.6382 8.5332 17.6382 9.44629C17.6382 10.2044 17.5164 10.9238 17.2729 11.6045C17.035 12.2852 16.703 12.9022 16.2769 13.4556L20.3359 17.5396C20.4245 17.6281 20.4909 17.7305 20.5352 17.8467C20.585 17.9629 20.6099 18.0874 20.6099 18.2202C20.6099 18.4028 20.5684 18.5688 20.4854 18.7183C20.4079 18.8677 20.2972 18.9839 20.1533 19.0669C20.0094 19.1554 19.8434 19.1997 19.6553 19.1997C19.5225 19.1997 19.3952 19.1748 19.2734 19.125C19.1572 19.0807 19.0493 19.0116 18.9497 18.9175L14.8657 14.8252C14.3234 15.2126 13.7257 15.5169 13.0728 15.7383C12.4198 15.9596 11.7336 16.0703 11.0142 16.0703C10.1011 16.0703 9.24333 15.8988 8.44092 15.5557C7.64404 15.2126 6.94124 14.7367 6.33252 14.1279C5.7238 13.5192 5.24788 12.8164 4.90479 12.0195C4.56169 11.2171 4.39014 10.3594 4.39014 9.44629ZM5.80957 9.44629C5.80957 10.1657 5.94238 10.8408 6.20801 11.4717C6.47917 12.097 6.8527 12.6476 7.32861 13.1235C7.81006 13.5994 8.36344 13.973 8.98877 14.2441C9.61963 14.5153 10.2948 14.6509 11.0142 14.6509C11.7336 14.6509 12.4059 14.5153 13.0312 14.2441C13.6621 13.973 14.2155 13.5994 14.6914 13.1235C15.1673 12.6476 15.5409 12.097 15.812 11.4717C16.0832 10.8408 16.2188 10.1657 16.2188 9.44629C16.2188 8.72689 16.0832 8.05452 15.812 7.4292C15.5409 6.79834 15.1673 6.24495 14.6914 5.76904C14.2155 5.2876 13.6621 4.91406 13.0312 4.64844C12.4059 4.37728 11.7336 4.2417 11.0142 4.2417C10.2948 4.2417 9.61963 4.37728 8.98877 4.64844C8.36344 4.91406 7.81006 5.2876 7.32861 5.76904C6.8527 6.24495 6.47917 6.79834 6.20801 7.4292C5.94238 8.05452 5.80957 8.72689 5.80957 9.44629Z" fill="#8E8E93"/>
</svg>
